<svg version="1.2" xmlns="http://www.w3.org/2000/svg" viewBox="0 0 28 28" width="28" height="28">
    <title>akashaBW</title>
    <g fill="currentColor" fill-rule="evenodd">
        <path d="m7.2 6.6c0.1 3.2-0.6 6.4-2 9.2-1.2 2.3-2.2 4.4-2.2 4.7 0 0.3 2.1 0.4 4.8 0.3 3.5-0.1 5.7 0.5 8.7 2.4l4 2.5c0.8-7.9 2-12.1 3.3-14.4l2.2-4.3c-8.1 0.1-10.9-0.7-14.2-2.6l-4.7-2.7z" stroke-width="0.5"/>
        <path d="m9.3 8.2c0.2 2.6 0.7 3.4 2.5 3.6 1.6 0.1 2.2-0.3 2.2-1.7 0.1-1-1-2.6-2.4-3.5-2.5-1.6-2.5-1.6-2.3 1.6zm6.7 2c-0.8 0.7-1.3 2-1.2 3 0.2 1.5-0.2 1.6-1.8 0.8-1.1-0.6-2.2-1-2.5-1-0.3 0-1.5 1-2.6 2.3-1.1 1.2-1.9 2.5-1.9 3 0 0.4 1 0.7 2.2 0.7 1.3 0 3.1-0.8 4.1-1.8 1.5-1.4 1.8-1.4 1.7-0.2 0 0.8 0.9 2.3 2 3.3 1.1 0.9 2.2 1.7 2.5 1.7 0.3 0 0.5-0.9 0.5-2 0-1.1-0.5-2.9-1-4-0.8-1.6-0.7-2 0.5-2 0.8 0 1.9-0.9 2.5-2 0.5-1.1 1-2.2 1-2.5 0-0.3-1-0.5-2.3-0.5-1.3 0-2.9 0.5-3.7 1.2z" stroke="none"/>
    </g>
</svg>
